<svg width="1200" height="583" viewBox="0 0 1200 583" fill="none" xmlns="http://www.w3.org/2000/svg">
<mask id="mask0_1_1337" style="mask-type:luminance" maskUnits="userSpaceOnUse" x="0" y="0" width="1200" height="583">
<path d="M1200 0.377441H0V582.299H1200V0.377441Z" fill="white"/>
</mask>
<g mask="url(#mask0_1_1337)">
<path d="M1200 0.377441H0V582.299H1200V0.377441Z" fill="white"/>
<path d="M-11.02 113.416C123.48 114.85 220.79 252.142 506.94 264.715C793.09 277.289 870.24 606.065 1024.9 621.808" stroke="black" stroke-opacity="0.07" stroke-width="2"/>
<path d="M-208.15 468.825C-121.85 469.209 -39.1399 541.565 129.88 541.565C298.89 541.565 298.07 468.741 467.9 468.825C637.73 468.908 714.82 608.08 805.93 610.73" stroke="black" stroke-opacity="0.07" stroke-width="2"/>
<path d="M-114.28 407.047C-29.9698 407.442 50.6602 479.787 215.6 479.787C380.54 479.787 376.12 405.998 545.49 407.047C714.85 408.097 776.22 629.082 875.37 639.722" stroke="black" stroke-opacity="0.07" stroke-width="2"/>
<path d="M-119.96 358.862C-9.45996 356.96 74.44 207.459 299.37 213.382C524.29 219.305 567.88 653.522 718.69 698.268" stroke="black" stroke-opacity="0.07" stroke-width="2"/>
<path d="M-136.23 119.235C-6.29999 129.044 57.56 376.309 313.5 392.738C569.44 409.167 637.14 624.738 763.23 631.523" stroke="black" stroke-opacity="0.07" stroke-width="2"/>
</g>
</svg>
