<svg width="45" height="45" viewBox="0 0 45 45" fill="none" xmlns="http://www.w3.org/2000/svg">
<path d="M37.1663 12.5628C37.5295 12.5581 37.8764 12.4117 38.1333 12.1548C38.3901 11.898 38.5365 11.551 38.5413 11.1878V7.52116C38.5413 7.15649 38.3964 6.80675 38.1385 6.54889C37.8807 6.29102 37.5309 6.14616 37.1663 6.14616C36.8016 6.14616 36.4519 6.29102 36.194 6.54889C35.9361 6.80675 35.7913 7.15649 35.7913 7.52116V11.1878C35.796 11.551 35.9424 11.898 36.1992 12.1548C36.4561 12.4117 36.8031 12.5581 37.1663 12.5628ZM29.8329 10.7295C30.1961 10.7247 30.5431 10.5784 30.7999 10.3215C31.0568 10.0647 31.2032 9.71769 31.2079 9.35449V3.85449C31.2079 3.48982 31.0631 3.14008 30.8052 2.88222C30.5473 2.62436 30.1976 2.47949 29.8329 2.47949C29.4683 2.47949 29.1185 2.62436 28.8607 2.88222C28.6028 3.14008 28.4579 3.48982 28.4579 3.85449V9.35449C28.4627 9.71769 28.6091 10.0647 28.8659 10.3215C29.1227 10.5784 29.4697 10.7247 29.8329 10.7295ZM22.4996 12.5628C22.8628 12.5581 23.2098 12.4117 23.4666 12.1548C23.7235 11.898 23.8698 11.551 23.8746 11.1878V7.52116C23.8746 7.15649 23.7297 6.80675 23.4719 6.54889C23.214 6.29102 22.8643 6.14616 22.4996 6.14616C22.1349 6.14616 21.7852 6.29102 21.5273 6.54889C21.2695 6.80675 21.1246 7.15649 21.1246 7.52116V11.1878C21.1293 11.551 21.2757 11.898 21.5326 12.1548C21.7894 12.4117 22.1364 12.5581 22.4996 12.5628ZM15.1663 10.7295C15.5295 10.7247 15.8764 10.5784 16.1333 10.3215C16.3901 10.0647 16.5365 9.71769 16.5413 9.35449V5.68783C16.5413 5.32315 16.3964 4.97342 16.1385 4.71555C15.8807 4.45769 15.5309 4.31283 15.1663 4.31283C14.8016 4.31283 14.4518 4.45769 14.194 4.71555C13.9361 4.97342 13.7913 5.32315 13.7913 5.68783V9.35449C13.796 9.71769 13.9424 10.0647 14.1992 10.3215C14.4561 10.5784 14.8031 10.7247 15.1663 10.7295Z" fill="#4ABB82"/>
<path d="M24.333 41.8963H27.9997C31.7665 41.8915 35.3776 40.393 38.0411 37.7294C40.7047 35.0659 42.2032 31.4548 42.208 27.688V18.5213C42.2032 17.6719 41.8636 16.8586 41.263 16.258C40.6624 15.6574 39.8491 15.3178 38.9997 15.313H13.333C12.4836 15.3178 11.6703 15.6574 11.0697 16.258C10.469 16.8586 10.1295 17.6719 10.1247 18.5213V27.688C10.1295 31.4548 11.628 35.0659 14.2916 37.7294C16.9551 40.393 20.5662 41.8915 24.333 41.8963ZM38.9997 18.063C39.1212 18.063 39.2378 18.1113 39.3238 18.1972C39.4097 18.2832 39.458 18.3998 39.458 18.5213V27.688C39.458 30.7269 38.2508 33.6414 36.1019 35.7903C33.9531 37.9391 31.0386 39.1463 27.9997 39.1463H24.333C22.8283 39.1463 21.3383 38.8499 19.9481 38.2741C18.5579 37.6983 17.2947 36.8543 16.2307 35.7903C15.1667 34.7263 14.3227 33.4631 13.7469 32.0729C13.1711 30.6827 12.8747 29.1927 12.8747 27.688V18.5213C12.8747 18.3998 12.923 18.2832 13.0089 18.1972C13.0949 18.1113 13.2114 18.063 13.333 18.063H38.9997Z" fill="#1D1D35"/>
<path d="M8.74976 30.8962H11.4998C11.863 30.8914 12.2099 30.745 12.4668 30.4882C12.7236 30.2313 12.87 29.8844 12.8748 29.5212V20.3545C12.87 19.9913 12.7236 19.6443 12.4668 19.3875C12.2099 19.1306 11.863 18.9842 11.4998 18.9795H8.74976C7.16951 18.9795 5.65398 19.6072 4.53658 20.7246C3.41917 21.8421 2.79142 23.3576 2.79142 24.9378C2.79142 26.5181 3.41917 28.0336 4.53658 29.151C5.65398 30.2684 7.16951 30.8962 8.74976 30.8962ZM10.1248 28.1462H8.74976C7.89885 28.1462 7.0828 27.8081 6.48112 27.2065C5.87944 26.6048 5.54142 25.7887 5.54142 24.9378C5.54142 24.0869 5.87944 23.2709 6.48112 22.6692C7.0828 22.0675 7.89885 21.7295 8.74976 21.7295H10.1248V28.1462Z" fill="#1D1D35"/>
</svg>
