<svg width="45" height="45" viewBox="0 0 45 45" fill="none" xmlns="http://www.w3.org/2000/svg">
<path d="M22.0735 15.3151C21.7088 15.315 21.3592 15.1701 21.1013 14.9123C20.8435 14.6544 20.6986 14.3047 20.6985 13.9401V10.2734C20.6985 9.90876 20.8434 9.55903 21.1012 9.30117C21.3591 9.0433 21.7088 8.89844 22.0735 8.89844C22.4382 8.89844 22.7879 9.0433 23.0458 9.30117C23.3036 9.55903 23.4485 9.90876 23.4485 10.2734V13.9401C23.4484 14.3047 23.3035 14.6544 23.0457 14.9123C22.7878 15.1701 22.4381 15.315 22.0735 15.3151Z" fill="#4ABB82"/>
<path d="M12.9067 15.3151C12.5421 15.315 12.1924 15.1701 11.9346 14.9123C11.6767 14.6544 11.5318 14.3047 11.5317 13.9401V10.2734C11.5317 9.90876 11.6766 9.55903 11.9345 9.30117C12.1923 9.0433 12.5421 8.89844 12.9067 8.89844C13.2714 8.89844 13.6211 9.0433 13.879 9.30117C14.1369 9.55903 14.2817 9.90876 14.2817 10.2734V13.9401C14.2816 14.3047 14.1367 14.6544 13.8789 14.9123C13.6211 15.1701 13.2714 15.315 12.9067 15.3151Z" fill="#4ABB82"/>
<path d="M31.24 15.3151C30.8753 15.315 30.5257 15.1701 30.2678 14.9123C30.01 14.6544 29.8651 14.3047 29.865 13.9401V10.2734C29.865 9.90876 30.0099 9.55903 30.2677 9.30117C30.5256 9.0433 30.8753 8.89844 31.24 8.89844C31.6047 8.89844 31.9544 9.0433 32.2123 9.30117C32.4701 9.55903 32.615 9.90876 32.615 10.2734V13.9401C32.6149 14.3047 32.47 14.6544 32.2122 14.9123C31.9543 15.1701 31.6046 15.315 31.24 15.3151Z" fill="#4ABB82"/>
<path d="M38.5733 40.0653H5.57332C4.72274 40.0642 3.90729 39.7259 3.30583 39.1244C2.70438 38.523 2.36602 37.7075 2.36499 36.8569V27.6903C2.36602 26.8397 2.70438 26.0242 3.30583 25.4228C3.90729 24.8213 4.72274 24.483 5.57332 24.4819H38.5733C39.4239 24.483 40.2394 24.8213 40.8408 25.4228C41.4423 26.0242 41.7806 26.8397 41.7817 27.6903V36.8569C41.7806 37.7075 41.4423 38.523 40.8408 39.1244C40.2394 39.7259 39.4239 40.0642 38.5733 40.0653ZM5.57332 27.2319C5.45184 27.2322 5.33539 27.2805 5.24949 27.3664C5.16359 27.4523 5.11522 27.5688 5.11499 27.6903V36.8569C5.11522 36.9784 5.16359 37.0949 5.24949 37.1808C5.33539 37.2667 5.45184 37.315 5.57332 37.3153H38.5733C38.6948 37.315 38.8113 37.2667 38.8972 37.1808C38.9831 37.0949 39.0314 36.9784 39.0317 36.8569V27.6903C39.0314 27.5688 38.9831 27.4523 38.8972 27.3664C38.8113 27.2805 38.6948 27.2322 38.5733 27.2319H5.57332Z" fill="#1D1D35"/>
<path d="M36.7401 27.2319H7.40674C7.0421 27.2318 6.69242 27.0869 6.43457 26.8291C6.17673 26.5713 6.03184 26.2216 6.03174 25.8569V16.6903C6.03277 15.8397 6.37112 15.0242 6.97258 14.4228C7.57403 13.8213 8.38949 13.483 9.24007 13.4819H34.9067C35.7573 13.483 36.5728 13.8213 37.1742 14.4228C37.7757 15.0242 38.114 15.8397 38.1151 16.6903V25.8569C38.115 26.2216 37.9701 26.5713 37.7122 26.8291C37.4544 27.0869 37.1047 27.2318 36.7401 27.2319ZM8.78174 24.4819H35.3651V16.6903C35.3648 16.5688 35.3165 16.4523 35.2306 16.3664C35.1447 16.2805 35.0282 16.2322 34.9067 16.2319H9.24007C9.11859 16.2322 9.00214 16.2805 8.91624 16.3664C8.83033 16.4523 8.78197 16.5688 8.78174 16.6903V24.4819Z" fill="#1D1D35"/>
<path d="M22.0733 7.5236C23.0858 7.5236 23.9067 6.70279 23.9067 5.69027C23.9067 4.67774 23.0858 3.85693 22.0733 3.85693C21.0608 3.85693 20.24 4.67774 20.24 5.69027C20.24 6.70279 21.0608 7.5236 22.0733 7.5236Z" fill="#4ABB82"/>
<path d="M12.9066 7.5236C13.9191 7.5236 14.7399 6.70279 14.7399 5.69027C14.7399 4.67774 13.9191 3.85693 12.9066 3.85693C11.8941 3.85693 11.0732 4.67774 11.0732 5.69027C11.0732 6.70279 11.8941 7.5236 12.9066 7.5236Z" fill="#4ABB82"/>
<path d="M31.2401 7.5236C32.2526 7.5236 33.0734 6.70279 33.0734 5.69027C33.0734 4.67774 32.2526 3.85693 31.2401 3.85693C30.2275 3.85693 29.4067 4.67774 29.4067 5.69027C29.4067 6.70279 30.2275 7.5236 31.2401 7.5236Z" fill="#4ABB82"/>
</svg>
