<svg width="35" height="36" viewBox="0 0 35 36" fill="none" xmlns="http://www.w3.org/2000/svg">
<g clip-path="url(#clip0_1_1473)">
<path d="M31.938 6.34775C31.0578 5.46722 30.0128 4.76872 28.8627 4.29216C27.7125 3.8156 26.4797 3.57031 25.2347 3.57031C23.9898 3.57031 22.757 3.8156 21.6068 4.29216C20.4567 4.76872 19.4117 5.46722 18.5315 6.34775C18.1467 6.72375 17.8075 7.14372 17.5209 7.599C16.6468 6.35403 15.4856 5.33798 14.1356 4.63685C12.7857 3.93571 11.2867 3.57014 9.76548 3.57108C7.89088 3.57148 6.05849 4.12769 4.49998 5.1694C2.94147 6.2111 1.72681 7.69152 1.00958 9.42348C0.292354 11.1554 0.104759 13.0612 0.470514 14.8997C0.83627 16.7383 1.73895 18.4272 3.06444 19.7528L14.7107 31.399C15.451 32.1388 16.4547 32.5543 17.5012 32.5543C18.5477 32.5543 19.5515 32.1388 20.2917 31.399L31.9365 19.7528C33.7112 17.9736 34.7078 15.5632 34.7078 13.0502C34.7078 10.5373 33.7126 8.12693 31.938 6.34775ZM29.8744 17.6907L18.2296 29.3369C18.0331 29.5242 17.772 29.6286 17.5005 29.6286C17.229 29.6286 16.9679 29.5242 16.7713 29.3369L5.12652 17.6907C4.48308 17.0476 3.98036 16.2779 3.65026 15.4302C3.32015 14.5826 3.16988 13.6756 3.20897 12.7667C3.24807 11.8579 3.47568 10.9672 3.87735 10.151C4.27903 9.33481 4.846 8.61106 5.54228 8.02567C6.23856 7.44028 7.04893 7.00604 7.92196 6.75051C8.795 6.49498 9.71162 6.42375 10.6136 6.54133C11.5157 6.65891 12.3834 6.96273 13.1618 7.43352C13.9401 7.9043 14.6121 8.53177 15.1351 9.27608C15.402 9.65555 15.7562 9.96531 16.1678 10.1793C16.5795 10.3932 17.0365 10.5051 17.5005 10.5055H17.5019C17.9659 10.5046 18.4229 10.3923 18.8345 10.1781C19.2462 9.96394 19.6003 9.6541 19.8674 9.27462C20.0842 8.9661 20.3272 8.67677 20.5936 8.40983C21.8243 7.17912 23.4935 6.48771 25.234 6.48771C26.9745 6.48771 28.6437 7.17912 29.8744 8.40983C31.1052 9.64055 31.7966 11.3098 31.7966 13.0502C31.7966 14.7907 31.1052 16.4599 29.8744 17.6907Z" fill="#1D1D35"/>
<path d="M26.6559 8.1461C26.4699 8.08545 26.2737 8.06282 26.0788 8.07958C25.8839 8.09634 25.6943 8.15213 25.5215 8.24364C25.3486 8.33515 25.1959 8.46051 25.0724 8.61225C24.949 8.76399 24.8573 8.93902 24.8029 9.12691C24.7485 9.3148 24.7324 9.51172 24.7557 9.70594C24.779 9.90017 24.8411 10.0877 24.9383 10.2575C25.0355 10.4272 25.1659 10.5756 25.3217 10.6939C25.4775 10.8122 25.6555 10.898 25.8451 10.9461C26.2179 11.056 26.555 11.2628 26.8219 11.5453C27.0888 11.8279 27.2761 12.1762 27.3647 12.5546C27.4382 12.8761 27.6185 13.1632 27.8763 13.369C28.134 13.5748 28.4538 13.6872 28.7836 13.6878C28.894 13.6883 29.0041 13.6761 29.1117 13.6513C29.2984 13.6083 29.4747 13.529 29.6307 13.4179C29.7866 13.3067 29.9192 13.1659 30.0208 13.0036C30.1223 12.8412 30.1909 12.6604 30.2226 12.4715C30.2543 12.2827 30.2485 12.0894 30.2055 11.9028C30.0012 11.0178 29.5647 10.2033 28.9411 9.54306C28.3175 8.88279 27.5277 8.40059 26.6559 8.1461Z" fill="#4ABB82"/>
</g>
<defs>
<clipPath id="clip0_1_1473">
<rect width="35" height="35" fill="white" transform="translate(0.000488281 0.5625)"/>
</clipPath>
</defs>
</svg>
