<svg width="20" height="21" viewBox="0 0 20 21" fill="none" xmlns="http://www.w3.org/2000/svg">
<path fill-rule="evenodd" clip-rule="evenodd" d="M7.5 16.5227C4.58812 15.4921 2.5 12.7133 2.5 9.4502C2.5 5.31082 5.86062 1.9502 10 1.9502C14.1394 1.9502 17.5 5.31082 17.5 9.4502C17.5 11.7839 16.3625 14.1521 14.2244 15.5933C12.5975 16.6896 10.5906 17.9871 9.425 18.7352C9.04063 18.9821 8.55188 18.9996 8.15063 18.7802C7.74938 18.5608 7.5 18.1402 7.5 17.6833V16.5227ZM10.4919 11.8227V11.4814C10.4919 10.4714 11.0869 10.1121 11.5725 9.72707C12.1044 9.30519 12.5506 8.85832 12.6713 8.1252C12.8056 7.3077 12.6275 6.67645 12.3081 6.20395C11.83 5.4952 11.0031 5.13645 10.2744 5.08457C7.695 4.90019 7.08875 7.4127 7.08875 7.4127C7.00812 7.74832 7.21438 8.08582 7.55 8.16707C7.885 8.2477 8.22312 8.04145 8.30375 7.70582C8.30375 7.70582 8.66187 6.22207 10.185 6.33144C10.5706 6.35894 11.0194 6.52832 11.2725 6.90332C11.4406 7.1527 11.5087 7.49082 11.4375 7.92207C11.3937 8.19082 11.2375 8.36582 11.06 8.5277C10.8806 8.6902 10.6775 8.8377 10.4788 8.99957C9.83688 9.52332 9.24188 10.1633 9.24188 11.4814V11.8208C9.24188 11.8208 9.2425 11.9452 9.28437 12.0464C9.38375 12.2889 9.59625 12.4452 9.88188 12.4452C10.2088 12.4452 10.4719 12.1583 10.4881 11.8914C10.49 11.8658 10.4919 11.8227 10.4919 11.8227ZM9.87125 13.0708C9.48375 13.0708 9.16875 13.3852 9.16875 13.7727C9.16875 14.1602 9.48375 14.4752 9.87125 14.4752C10.2588 14.4752 10.5737 14.1602 10.5737 13.7727C10.5737 13.3852 10.2588 13.0708 9.87125 13.0708Z" fill="white"/>
</svg>
