<svg width="20" height="21" viewBox="0 0 20 21" fill="none" xmlns="http://www.w3.org/2000/svg">
<g clip-path="url(#clip0_1_1585)">
<path d="M19.566 9.66555C19.9596 9.28189 20.0986 8.71882 19.9288 8.19539C19.7586 7.67196 19.3153 7.29831 18.7706 7.21902L13.928 6.51537C13.7217 6.48534 13.5435 6.35598 13.4514 6.16896L11.2864 1.78129C11.0433 1.2883 10.5499 0.981934 10.0001 0.981934C9.45061 0.981934 8.95722 1.2883 8.71413 1.78129L6.54873 6.16936C6.45662 6.35638 6.27801 6.48574 6.07176 6.51577L1.22915 7.21942C0.684895 7.29831 0.241163 7.67236 0.0709583 8.19579C-0.0988455 8.71922 0.0401213 9.28229 0.433794 9.66595L3.9376 13.0813C4.08698 13.227 4.15546 13.4369 4.12022 13.6419L3.29363 18.4645C3.22034 18.889 3.33167 19.3019 3.6064 19.6275C4.03331 20.1349 4.77861 20.2895 5.37452 19.9763L9.70532 17.6992C9.88634 17.6043 10.1142 17.6051 10.2948 17.6992L14.626 19.9763C14.8367 20.0873 15.0613 20.1433 15.2932 20.1433C15.7165 20.1433 16.1178 19.9551 16.3937 19.6275C16.6689 19.3019 16.7798 18.8882 16.7065 18.4645L15.8795 13.6419C15.8443 13.4365 15.9128 13.227 16.0621 13.0813L19.566 9.66555Z" fill="white"/>
</g>
<defs>
<clipPath id="clip0_1_1585">
<rect width="20" height="20" fill="white" transform="translate(0 0.5625)"/>
</clipPath>
</defs>
</svg>
