<svg width="40" height="41" viewBox="0 0 40 41" fill="none" xmlns="http://www.w3.org/2000/svg">
<g clip-path="url(#clip0_1_1561)">
<path d="M27.9421 20.4973H20.8593V15.068H24.7652C25.2398 15.068 25.6246 14.6833 25.6246 14.2087V9.44336C25.6246 8.96875 25.2398 8.58398 24.7651 8.58398C22.7589 8.58398 20.9957 9.64062 19.9999 11.2258C19.004 9.64062 17.2409 8.58398 15.2346 8.58398C14.76 8.58398 14.3751 8.96875 14.3751 9.44336V14.2087C14.3751 14.4366 14.4657 14.6552 14.6268 14.8163C14.788 14.9775 15.0066 15.068 15.2345 15.068H19.1404V20.4973H12.0576C11.583 20.4973 11.1982 20.882 11.1982 21.3566C11.1982 21.8312 11.583 22.216 12.0576 22.216H19.1405V28.5046C19.1405 28.9792 19.5253 29.364 19.9999 29.364C20.4745 29.364 20.8593 28.9792 20.8593 28.5046V22.216H27.9421C28.4167 22.216 28.8014 21.8312 28.8014 21.3566C28.8014 20.882 28.4167 20.4973 27.9421 20.4973ZM23.9058 10.398V13.3494H20.9545C21.2846 11.8841 22.4406 10.7282 23.9058 10.398ZM16.0939 13.3493L16.094 10.398C17.5592 10.7281 18.7151 11.8841 19.0453 13.3493H16.0939Z" fill="#4ABB82"/>
<path d="M27.942 29.3638H12.0576C11.583 29.3638 11.1982 28.979 11.1982 28.5044V14.2085C11.1982 13.7339 11.583 13.3491 12.0576 13.3491H27.942C28.4166 13.3491 28.8014 13.7339 28.8014 14.2085V28.5044C28.8014 28.979 28.4166 29.3638 27.942 29.3638ZM12.917 27.6451H27.0826V15.0679H12.917V27.6451Z" fill="#1D1D35"/>
<path d="M39.1407 21.4219H35.9639C35.4893 21.4219 35.1045 21.0371 35.1045 20.5625C35.1045 20.0879 35.4893 19.7031 35.9639 19.7031H39.1407C39.6154 19.7031 40.0001 20.0879 40.0001 20.5625C40.0001 21.0371 39.6154 21.4219 39.1407 21.4219Z" fill="#4ABB82"/>
<path d="M4.03625 21.4219H0.859375C0.384766 21.4219 0 21.0371 0 20.5625C0 20.0879 0.384766 19.7031 0.859375 19.7031H4.03625C4.51086 19.7031 4.89563 20.0879 4.89563 20.5625C4.89563 21.0371 4.51086 21.4219 4.03625 21.4219Z" fill="#4ABB82"/>
<path d="M20 5.45813C19.5254 5.45813 19.1406 5.07336 19.1406 4.59875V1.42188C19.1406 0.947266 19.5254 0.5625 20 0.5625C20.4746 0.5625 20.8594 0.947266 20.8594 1.42188V4.59875C20.8594 5.07336 20.4746 5.45813 20 5.45813Z" fill="#4ABB82"/>
<path d="M20 40.5626C19.5254 40.5626 19.1406 40.1779 19.1406 39.7032V36.5264C19.1406 36.0518 19.5254 35.667 20 35.667C20.4746 35.667 20.8594 36.0518 20.8594 36.5264V39.7032C20.8594 40.1779 20.4746 40.5626 20 40.5626Z" fill="#4ABB82"/>
<path d="M31.288 10.1337C31.0681 10.1337 30.8482 10.0498 30.6804 9.88197C30.3448 9.54635 30.3448 9.00221 30.6804 8.66658L32.9268 6.42018C33.2624 6.08455 33.8065 6.08455 34.1422 6.42018C34.4777 6.7558 34.4777 7.29994 34.1422 7.63557L31.8958 9.88197C31.7279 10.0498 31.5079 10.1337 31.288 10.1337Z" fill="#4ABB82"/>
<path d="M6.46552 34.9564C6.2456 34.9564 6.02567 34.8725 5.85786 34.7047C5.52231 34.3691 5.52231 33.825 5.85786 33.4893L8.10427 31.2429C8.43989 30.9073 8.98403 30.9073 9.31966 31.2429C9.6552 31.5786 9.6552 32.1227 9.31966 32.4583L7.07317 34.7048C6.90536 34.8726 6.68544 34.9564 6.46552 34.9564Z" fill="#4ABB82"/>
<path d="M8.712 10.1337C8.49208 10.1337 8.27216 10.0498 8.10435 9.88197L5.85786 7.63557C5.52231 7.29994 5.52231 6.7558 5.85786 6.42018C6.19349 6.08455 6.73763 6.08455 7.07325 6.42018L9.31966 8.66658C9.6552 9.00221 9.6552 9.54635 9.31966 9.88197C9.15185 10.0498 8.93192 10.1337 8.712 10.1337Z" fill="#4ABB82"/>
<path d="M33.5344 34.9564C33.3145 34.9564 33.0946 34.8725 32.9268 34.7047L30.6804 32.4583C30.3448 32.1227 30.3448 31.5786 30.6804 31.2429C31.016 30.9073 31.5601 30.9073 31.8958 31.2429L34.1422 33.4893C34.4777 33.825 34.4777 34.3691 34.1422 34.7047C33.9744 34.8726 33.7544 34.9564 33.5344 34.9564Z" fill="#4ABB82"/>
</g>
<defs>
<clipPath id="clip0_1_1561">
<rect width="40" height="40" fill="white" transform="translate(0 0.5625)"/>
</clipPath>
</defs>
</svg>
