<svg width="40" height="41" viewBox="0 0 40 41" fill="none" xmlns="http://www.w3.org/2000/svg">
<g clip-path="url(#clip0_1_1549)">
<path d="M30.6755 6.11588C30.8085 5.84823 30.7838 5.5155 30.6187 5.26729L27.7974 0.951771C27.5376 0.554586 27.0051 0.442868 26.6079 0.70271C26.2106 0.962396 26.0991 1.49505 26.3588 1.89223L27.3312 3.37949C24.496 2.17348 21.3735 1.67481 18.2682 1.96177C13.9431 2.36192 9.86688 4.27652 6.79049 7.35291C3.4427 10.7007 1.50404 15.1485 1.33146 19.8771C1.15982 24.5805 2.74497 29.1333 5.79487 32.6964C5.96487 32.8949 6.20573 32.9969 6.44815 32.9969C6.6458 32.9969 6.84455 32.929 7.0065 32.7903C7.36705 32.4817 7.40916 31.9392 7.10057 31.5786C1.38388 24.9 1.78153 14.7926 8.0058 8.56829C13.0178 3.55621 20.5692 2.25926 26.8713 5.05011L24.7011 5.17073C24.2273 5.19714 23.8644 5.6026 23.8908 6.07651C23.9163 6.53416 24.2952 6.8883 24.748 6.88822C24.7641 6.88822 24.7803 6.88775 24.7966 6.88689L29.9503 6.60033C30.2556 6.58416 30.5457 6.39416 30.6755 6.11588Z" fill="#1D1D35"/>
<path d="M34.2055 8.42906C33.8969 8.06844 33.3544 8.02625 32.9937 8.335C32.6332 8.64359 32.5911 9.18609 32.8997 9.54663C38.6161 16.2253 38.2183 26.3326 31.9941 32.5567C26.9821 37.5688 19.4308 38.8658 13.1286 36.0749L15.2988 35.9543C15.7727 35.9279 16.1356 35.5224 16.1092 35.0485C16.0828 34.5746 15.6779 34.2131 15.2034 34.2381L10.0497 34.5247C9.40701 34.5419 9.01014 35.3324 9.38123 35.8579L12.2025 40.1734C12.3674 40.4256 12.6422 40.5625 12.9226 40.5625C13.0839 40.5625 13.247 40.5172 13.3921 40.4224C13.7893 40.1627 13.9008 39.6301 13.6411 39.2328L12.6694 37.7465C14.981 38.7297 17.4837 39.2425 20.0123 39.2425C20.5848 39.2425 21.1586 39.2162 21.7318 39.1632C26.0568 38.763 30.1331 36.8484 33.2094 33.772C36.5572 30.4242 38.4959 25.9765 38.6685 21.248C38.8403 16.5447 37.2553 11.9922 34.2055 8.42906Z" fill="#1D1D35"/>
<path d="M28.0468 21.7228H27.1118V14.4404C27.1118 14.081 26.8194 13.7886 26.4599 13.7886H25.1855C24.9651 13.7886 24.7613 13.8986 24.6403 14.0829L19.3043 22.2195C19.0473 22.6115 19.0268 23.0917 19.2496 23.5041C19.4723 23.9165 19.8851 24.1627 20.3539 24.1627H24.6717V26.6846C24.6717 27.044 24.9642 27.3365 25.3236 27.3365H26.4599C26.8194 27.3365 27.1118 27.044 27.1118 26.6846V24.1627H28.0468C28.4062 24.1627 28.6987 23.8703 28.6987 23.5109V22.3746C28.6987 22.0152 28.4063 21.7228 28.0468 21.7228ZM24.6718 18.641V21.7227H22.6508L24.6718 18.641Z" fill="#4ABB82"/>
<path d="M18.2898 19.3873C18.413 19.2642 18.4808 19.1005 18.4808 18.9264V14.4404C18.4808 14.081 18.1883 13.7886 17.8289 13.7886H11.9535C11.594 13.7886 11.3016 14.081 11.3016 14.4404V17.1636C11.3016 17.5231 11.594 17.8155 11.9535 17.8155H13.0683C13.4278 17.8155 13.7202 17.5231 13.7202 17.1636V16.2368H16.0406V18.7555L11.4914 23.3253C11.369 23.4484 11.3015 23.6117 11.3015 23.7852V26.6847C11.3015 27.0441 11.5939 27.3365 11.9534 27.3365H17.8288C18.1883 27.3365 18.4807 27.0441 18.4807 26.6847V25.5483C18.4807 25.1888 18.1883 24.8964 17.8288 24.8964H13.7202V23.9568L18.2898 19.3873Z" fill="#4ABB82"/>
</g>
<defs>
<clipPath id="clip0_1_1549">
<rect width="40" height="40" fill="white" transform="translate(0 0.5625)"/>
</clipPath>
</defs>
</svg>
