<svg width="35" height="41" viewBox="0 0 35 41" fill="none" xmlns="http://www.w3.org/2000/svg">
<path d="M34.6821 40.0554C34.6821 40.0554 28.9044 37.7821 24.2305 35.9632H4.57809C3.42641 35.9283 2.33564 35.4378 1.54527 34.5994C0.75489 33.7611 0.329504 32.6433 0.362504 31.4916V5.29949C0.330562 4.14857 0.756465 3.03198 1.54677 2.1947C2.33708 1.35741 3.42725 0.86781 4.57809 0.833313L30.468 0.833313C31.6193 0.867397 32.7099 1.35709 33.5004 2.19481C34.2908 3.03252 34.7164 4.14975 34.6836 5.30105V27.8622L34.6821 40.0554ZM29.6077 25.3688C29.5159 25.2509 29.4007 25.1534 29.2692 25.0825C29.1377 25.0115 28.993 24.9686 28.8441 24.9565C28.6951 24.9443 28.5453 24.9633 28.4041 25.0121C28.2629 25.0609 28.1334 25.1385 28.0238 25.24C27.9871 25.272 24.3281 28.5258 17.5199 28.5258C10.7961 28.5258 7.0809 25.2946 7.01454 25.2361C6.9048 25.1353 6.77535 25.0583 6.63437 25.0099C6.49338 24.9616 6.34391 24.943 6.19539 24.9554C6.04686 24.9677 5.9025 25.0106 5.77141 25.0815C5.64031 25.1524 5.52532 25.2497 5.4337 25.3672C5.23739 25.6121 5.14141 25.9224 5.16515 26.2353C5.18588 26.5468 5.32565 26.8384 5.55548 27.0496C5.72957 27.2057 9.89051 30.9107 17.5207 30.9107C25.1509 30.9107 29.3134 27.2065 29.4875 27.0496C29.7173 26.8383 29.857 26.5468 29.8779 26.2353C29.9016 25.9231 29.8062 25.6135 29.6109 25.3688H29.6077Z" fill="white"/>
</svg>
