<svg width="41" height="40" viewBox="0 0 41 40" fill="none" xmlns="http://www.w3.org/2000/svg">
<path d="M10.4165 19.7295C8.51286 19.7295 6.65197 19.165 5.06914 18.1074C3.48632 17.0498 2.25266 15.5466 1.52417 13.7878C0.795674 12.0291 0.605067 10.0938 0.97645 8.22675C1.34783 6.35968 2.26453 4.64467 3.61061 3.29859C4.95669 1.95251 6.6717 1.03582 8.53876 0.664438C10.4058 0.293055 12.3411 0.483663 14.0998 1.21216C15.8586 1.94065 17.3618 3.17431 18.4194 4.75713C19.477 6.33996 20.0415 8.20085 20.0415 10.1045C20.0386 12.6563 19.0236 15.1028 17.2192 16.9072C15.4148 18.7116 12.9683 19.7266 10.4165 19.7295ZM10.4165 3.2295C9.05676 3.2295 7.72755 3.63271 6.59696 4.38814C5.46638 5.14358 4.58519 6.21731 4.06484 7.47355C3.54448 8.72979 3.40834 10.1121 3.67361 11.4457C3.93888 12.7794 4.59366 14.0044 5.55515 14.9659C6.51664 15.9273 7.74164 16.5821 9.07526 16.8474C10.4089 17.1127 11.7912 16.9765 13.0475 16.4562C14.3037 15.9358 15.3774 15.0546 16.1329 13.924C16.8883 12.7935 17.2915 11.4642 17.2915 10.1045C17.2896 8.28173 16.5646 6.53417 15.2757 5.24528C13.9868 3.95639 12.2393 3.23144 10.4165 3.2295Z" fill="#4ABB82"/>
<path d="M13.1665 39.8963H5.83317C4.49648 39.8949 3.21496 39.3632 2.26978 38.418C1.3246 37.4729 0.79296 36.1913 0.791504 34.8547V27.5213C0.79296 26.1846 1.3246 24.9031 2.26978 23.9579C3.21496 23.0128 4.49648 22.4811 5.83317 22.4797H13.1665C14.5032 22.4811 15.7847 23.0128 16.7299 23.9579C17.6751 24.9031 18.2067 26.1846 18.2082 27.5213V34.8547C18.2067 36.1913 17.6751 37.4729 16.7299 38.418C15.7847 39.3632 14.5032 39.8949 13.1665 39.8963ZM5.83317 25.2297C5.22553 25.2301 4.64292 25.4717 4.21325 25.9014C3.78359 26.3311 3.54199 26.9137 3.5415 27.5213V34.8547C3.54199 35.4623 3.78359 36.0449 4.21325 36.4746C4.64292 36.9042 5.22553 37.1458 5.83317 37.1463H13.1665C13.7741 37.1458 14.3568 36.9042 14.7864 36.4746C15.2161 36.0449 15.4577 35.4623 15.4582 34.8547V27.5213C15.4577 26.9137 15.2161 26.3311 14.7864 25.9014C14.3568 25.4717 13.7741 25.2301 13.1665 25.2297H5.83317ZM35.1665 39.8963H27.8332C26.4965 39.8949 25.215 39.3632 24.2698 38.418C23.3246 37.4729 22.793 36.1913 22.7915 34.8547V27.5213C22.793 26.1846 23.3246 24.9031 24.2698 23.9579C25.215 23.0128 26.4965 22.4811 27.8332 22.4797H35.1665C36.5032 22.4811 37.7847 23.0128 38.7299 23.9579C39.6751 24.9031 40.2067 26.1846 40.2082 27.5213V34.8547C40.2067 36.1913 39.6751 37.4729 38.7299 38.418C37.7847 39.3632 36.5032 39.8949 35.1665 39.8963ZM27.8332 25.2297C27.2255 25.2301 26.6429 25.4717 26.2133 25.9014C25.7836 26.3311 25.542 26.9137 25.5415 27.5213V34.8547C25.542 35.4623 25.7836 36.0449 26.2133 36.4746C26.6429 36.9042 27.2255 37.1458 27.8332 37.1463H35.1665C35.7741 37.1458 36.3568 36.9042 36.7864 36.4746C37.2161 36.0449 37.4577 35.4623 37.4582 34.8547V27.5213C37.4577 26.9137 37.2161 26.3311 36.7864 25.9014C36.3568 25.4717 35.7741 25.2301 35.1665 25.2297H27.8332ZM35.1665 19.7297H27.8332C26.4965 19.7282 25.215 19.1966 24.2698 18.2514C23.3246 17.3062 22.793 16.0247 22.7915 14.688V7.35466C22.793 6.01797 23.3246 4.73645 24.2698 3.79127C25.215 2.84609 26.4965 2.31444 27.8332 2.31299H35.1665C36.5032 2.31444 37.7847 2.84609 38.7299 3.79127C39.6751 4.73645 40.2067 6.01797 40.2082 7.35466V14.688C40.2067 16.0247 39.6751 17.3062 38.7299 18.2514C37.7847 19.1966 36.5032 19.7282 35.1665 19.7297ZM27.8332 5.06299C27.2255 5.06347 26.6429 5.30507 26.2133 5.73474C25.7836 6.1644 25.542 6.74702 25.5415 7.35466V14.688C25.542 15.2956 25.7836 15.8782 26.2133 16.3079C26.6429 16.7376 27.2255 16.9792 27.8332 16.9797H35.1665C35.7741 16.9792 36.3568 16.7376 36.7864 16.3079C37.2161 15.8782 37.4577 15.2956 37.4582 14.688V7.35466C37.4577 6.74702 37.2161 6.1644 36.7864 5.73474C36.3568 5.30507 35.7741 5.06347 35.1665 5.06299H27.8332Z" fill="#1D1D35"/>
</svg>
