<svg width="25" height="25" viewBox="0 0 25 25" fill="none" xmlns="http://www.w3.org/2000/svg">
<path d="M19.3135 22.0898H15.8135C15.0178 22.0898 14.2548 21.7738 13.6922 21.2112C13.1295 20.6486 12.8135 19.8855 12.8135 19.0898V13.5898C12.8135 13.3246 12.9188 13.0703 13.1064 12.8827C13.2939 12.6952 13.5483 12.5898 13.8135 12.5898H19.3135C20.1091 12.5898 20.8722 12.9059 21.4348 13.4685C21.9974 14.0311 22.3135 14.7942 22.3135 15.5898V19.0898C22.3135 19.8855 21.9974 20.6486 21.4348 21.2112C20.8722 21.7738 20.1091 22.0898 19.3135 22.0898ZM14.8135 14.5898V19.0898C14.8135 19.3551 14.9188 19.6094 15.1064 19.797C15.2939 19.9845 15.5483 20.0898 15.8135 20.0898H19.3135C19.5787 20.0898 19.833 19.9845 20.0206 19.797C20.2081 19.6094 20.3135 19.3551 20.3135 19.0898V15.5898C20.3135 15.3246 20.2081 15.0703 20.0206 14.8827C19.833 14.6952 19.5787 14.5898 19.3135 14.5898H14.8135Z" fill="#8896AB"/>
<path d="M10.8135 11.5898H5.31348C4.51783 11.5898 3.75477 11.2738 3.19216 10.7112C2.62955 10.1486 2.31348 9.38549 2.31348 8.58984V5.08984C2.31348 4.29419 2.62955 3.53113 3.19216 2.96852C3.75477 2.40591 4.51783 2.08984 5.31348 2.08984H8.81348C9.60913 2.08984 10.3722 2.40591 10.9348 2.96852C11.4974 3.53113 11.8135 4.29419 11.8135 5.08984V10.5898C11.8135 10.8551 11.7081 11.1094 11.5206 11.297C11.333 11.4845 11.0787 11.5898 10.8135 11.5898ZM5.31348 4.08984C5.04826 4.08984 4.79391 4.1952 4.60637 4.38274C4.41883 4.57027 4.31348 4.82463 4.31348 5.08984V8.58984C4.31348 8.85506 4.41883 9.10941 4.60637 9.29695C4.79391 9.48449 5.04826 9.58984 5.31348 9.58984H9.81348V5.08984C9.81348 4.82463 9.70812 4.57027 9.52058 4.38274C9.33305 4.1952 9.07869 4.08984 8.81348 4.08984H5.31348Z" fill="#556987"/>
<path d="M19.3135 11.5898H13.8135C13.5483 11.5898 13.2939 11.4845 13.1064 11.297C12.9188 11.1094 12.8135 10.8551 12.8135 10.5898V5.08984C12.8135 4.29419 13.1295 3.53113 13.6922 2.96852C14.2548 2.40591 15.0178 2.08984 15.8135 2.08984H19.3135C20.1091 2.08984 20.8722 2.40591 21.4348 2.96852C21.9974 3.53113 22.3135 4.29419 22.3135 5.08984V8.58984C22.3135 9.38549 21.9974 10.1486 21.4348 10.7112C20.8722 11.2738 20.1091 11.5898 19.3135 11.5898ZM14.8135 9.58984H19.3135C19.5787 9.58984 19.833 9.48449 20.0206 9.29695C20.2081 9.10941 20.3135 8.85506 20.3135 8.58984V5.08984C20.3135 4.82463 20.2081 4.57027 20.0206 4.38274C19.833 4.1952 19.5787 4.08984 19.3135 4.08984H15.8135C15.5483 4.08984 15.2939 4.1952 15.1064 4.38274C14.9188 4.57027 14.8135 4.82463 14.8135 5.08984V9.58984Z" fill="#556987"/>
<path d="M8.81348 22.0898H5.31348C4.51783 22.0898 3.75477 21.7738 3.19216 21.2112C2.62955 20.6486 2.31348 19.8855 2.31348 19.0898V15.5898C2.31348 14.7942 2.62955 14.0311 3.19216 13.4685C3.75477 12.9059 4.51783 12.5898 5.31348 12.5898H10.8135C11.0787 12.5898 11.333 12.6952 11.5206 12.8827C11.7081 13.0703 11.8135 13.3246 11.8135 13.5898V19.0898C11.8135 19.8855 11.4974 20.6486 10.9348 21.2112C10.3722 21.7738 9.60913 22.0898 8.81348 22.0898ZM5.31348 14.5898C5.04826 14.5898 4.79391 14.6952 4.60637 14.8827C4.41883 15.0703 4.31348 15.3246 4.31348 15.5898V19.0898C4.31348 19.3551 4.41883 19.6094 4.60637 19.797C4.79391 19.9845 5.04826 20.0898 5.31348 20.0898H8.81348C9.07869 20.0898 9.33305 19.9845 9.52058 19.797C9.70812 19.6094 9.81348 19.3551 9.81348 19.0898V14.5898H5.31348Z" fill="#556987"/>
</svg>
