<svg width="40" height="36" viewBox="0 0 40 36" fill="none" xmlns="http://www.w3.org/2000/svg">
<path d="M39.1406 25.5698H0.859375C0.384766 25.5698 0 25.1851 0 24.7104C0 24.2358 0.384766 23.8511 0.859375 23.8511H39.1406C39.6152 23.8511 40 24.2358 40 24.7104C40 25.1851 39.6152 25.5698 39.1406 25.5698Z" fill="#4ABB82"/>
<path d="M36.758 0.0244141H3.32148C1.52102 0.0244141 0 1.50902 0 3.26637V27.0929C0 28.8502 1.52102 30.3349 3.32148 30.3349H16.758V33.3814H12.852C12.3774 33.3814 11.9927 33.7662 11.9927 34.2408C11.9927 34.7154 12.3774 35.1002 12.852 35.1002H27.1479C27.6225 35.1002 28.0073 34.7154 28.0073 34.2408C28.0073 33.7662 27.6225 33.3814 27.1479 33.3814H23.242V30.335H36.7579C38.5455 30.335 39.9999 28.8806 39.9999 27.0929V3.26637C40 1.47871 38.5456 0.0244141 36.758 0.0244141ZM21.5233 33.3814H18.4767V30.335H21.5233V33.3814ZM38.2812 27.0929C38.2812 27.9328 37.5979 28.6162 36.758 28.6162H3.32148C2.45266 28.6162 1.71875 27.9186 1.71875 27.0929V3.26637C1.71875 2.44066 2.45266 1.74309 3.32148 1.74309H36.758C37.5979 1.74309 38.2812 2.42645 38.2812 3.26637V27.0929Z" fill="#1D1D35"/>
<path d="M15.9324 20.4454C16.0373 20.3014 16.0934 20.1231 16.094 19.9451V5.64917C16.1027 5.18565 15.6921 4.77823 15.2288 4.78979H5.70977C5.24649 4.77831 4.83602 5.18573 4.84462 5.64917V19.9451C4.83602 20.4061 5.24313 20.8138 5.70446 20.8045H15.2341C15.5066 20.8056 15.7759 20.669 15.9324 20.4454ZM9.43649 12.7971L6.56337 17.1068V8.48745L9.43649 12.7971ZM7.30977 6.50854H13.6289L10.4693 11.2478L7.30977 6.50854ZM10.4693 14.3464L13.6289 19.0857H7.30977L10.4693 14.3464ZM11.5021 12.7971L14.3752 8.48745V17.1068L11.5021 12.7971Z" fill="#4ABB82"/>
<path d="M34.2959 11.2736H20C19.5254 11.2736 19.1406 10.8888 19.1406 10.4142V5.64893C19.1406 5.17432 19.5254 4.78955 20 4.78955H34.2959C34.7705 4.78955 35.1553 5.17432 35.1553 5.64893V10.4142C35.1553 10.8888 34.7705 11.2736 34.2959 11.2736ZM20.8594 9.55486H33.4366V6.5083H20.8594V9.55486Z" fill="#1D1D35"/>
<path d="M24.7653 20.8044H20C19.5254 20.8044 19.1406 20.4196 19.1406 19.945V15.1797C19.1406 14.7051 19.5254 14.3203 20 14.3203H24.7653C25.2399 14.3203 25.6247 14.7051 25.6247 15.1797V19.945C25.6247 20.4196 25.2399 20.8044 24.7653 20.8044ZM20.8594 19.0856H23.9059V16.0391H20.8594V19.0856Z" fill="#1D1D35"/>
<path d="M34.2958 20.8044H29.5305C29.0559 20.8044 28.6711 20.4196 28.6711 19.945V15.1797C28.6711 14.7051 29.0559 14.3203 29.5305 14.3203H34.2958C34.7704 14.3203 35.1552 14.7051 35.1552 15.1797V19.945C35.1552 20.4196 34.7704 20.8044 34.2958 20.8044ZM30.3899 19.0856H33.4365V16.0391H30.3899V19.0856Z" fill="#1D1D35"/>
</svg>
