<svg width="20" height="21" viewBox="0 0 20 21" fill="none" xmlns="http://www.w3.org/2000/svg">
<g clip-path="url(#clip0_1_1350)">
<path d="M15.6002 1.62695H9.45946C9.07081 1.62695 8.69756 1.78168 8.42257 2.05667L0.429534 10.0482C-0.143178 10.6209 -0.143178 11.5493 0.429534 12.1228L6.57024 18.2635C7.14295 18.8362 8.07131 18.8362 8.64403 18.2635L16.6371 10.2719C16.912 9.99617 17.0668 9.62292 17.0668 9.23353V3.09356C17.0668 2.28326 16.4105 1.62695 15.6002 1.62695ZM13.0336 6.76009C12.4264 6.76009 11.9336 6.26731 11.9336 5.66014C11.9336 5.05296 12.4264 4.56018 13.0336 4.56018C13.6408 4.56018 14.1336 5.05296 14.1336 5.66014C14.1336 6.26731 13.6408 6.76009 13.0336 6.76009Z" fill="white"/>
<path d="M18.5334 3.09326L18.5327 9.91961C18.5327 10.2577 18.3985 10.5825 18.1587 10.8216L10.0366 18.9437L10.1613 19.0683C10.734 19.641 11.6624 19.641 12.2351 19.0683L19.5696 11.7353C19.8453 11.4603 20 11.087 20 10.6984V4.55987C20 3.74957 19.3437 3.09326 18.5334 3.09326Z" fill="white"/>
</g>
<defs>
<clipPath id="clip0_1_1350">
<rect width="20" height="20" fill="white" transform="translate(0 0.5625)"/>
</clipPath>
</defs>
</svg>
