<svg width="35" height="36" viewBox="0 0 35 36" fill="none" xmlns="http://www.w3.org/2000/svg">
<path d="M25.3458 29.7294H9.65415C8.65168 29.7317 7.67882 29.3897 6.89836 28.7605C6.11789 28.1314 5.57716 27.2533 5.36665 26.2732L2.81456 14.3586C2.63918 13.6087 2.70573 12.8226 3.00468 12.1129C3.30364 11.4032 3.81963 10.8064 4.47868 10.4081C5.13774 10.0097 5.906 9.83029 6.67332 9.89551C7.44064 9.96072 8.1676 10.2672 8.74998 10.7711L11.3604 12.9877L14.4666 8.32107C14.7973 7.81864 15.2476 7.40621 15.777 7.12082C16.3065 6.83544 16.8985 6.68604 17.5 6.68604C18.1014 6.68604 18.6935 6.83544 19.2229 7.12082C19.7524 7.40621 20.2027 7.81864 20.5333 8.32107L23.6396 12.9877L26.25 10.7711C26.8329 10.2814 27.5544 9.98644 28.3134 9.92762C29.0725 9.8688 29.8308 10.0491 30.4822 10.4431C31.1336 10.8371 31.6453 11.4252 31.9455 12.1248C32.2457 12.8244 32.3194 13.6004 32.1562 14.344L29.6041 26.2586C29.3976 27.2365 28.8624 28.1142 28.0877 28.7457C27.3129 29.3772 26.3453 29.7243 25.3458 29.7294ZM6.38748 12.8565C6.25208 12.8553 6.11964 12.8961 6.00831 12.9732C5.88556 13.0432 5.78745 13.1494 5.72741 13.2773C5.66736 13.4052 5.64832 13.5486 5.6729 13.6877L8.22498 25.6023C8.29613 25.934 8.48068 26.2305 8.74685 26.4408C9.01303 26.651 9.34418 26.762 9.68331 26.7544H25.3458C25.6849 26.762 26.0161 26.651 26.2823 26.4408C26.5485 26.2305 26.733 25.934 26.8041 25.6023L29.3271 13.6877C29.3597 13.539 29.345 13.3838 29.2849 13.2439C29.2249 13.104 29.1225 12.9864 28.9923 12.9076C28.862 12.8288 28.7103 12.7927 28.5585 12.8045C28.4067 12.8162 28.2624 12.8752 28.1458 12.9732L25.5208 15.1752C25.2056 15.437 24.8389 15.6294 24.4444 15.74C24.0499 15.8505 23.6365 15.8768 23.2312 15.8169C22.8255 15.7587 22.4365 15.6157 22.0897 15.397C21.743 15.1784 21.4462 14.8892 21.2187 14.5482L18.1125 9.88149C18.0464 9.77915 17.9557 9.69501 17.8487 9.63675C17.7417 9.57848 17.6218 9.54796 17.5 9.54796C17.3782 9.54796 17.2583 9.57848 17.1513 9.63675C17.0443 9.69501 16.9536 9.77915 16.8875 9.88149L13.7812 14.6065C13.5538 14.9475 13.257 15.2368 12.9102 15.4554C12.5635 15.674 12.1745 15.8171 11.7687 15.8752C11.3634 15.9351 10.9501 15.9089 10.5556 15.7983C10.1611 15.6878 9.79431 15.4953 9.47915 15.2336L6.85415 13.0315C6.72463 12.919 6.559 12.8569 6.38748 12.8565Z" fill="#1D1D35"/>
<path d="M17.4999 23.8958C19.1107 23.8958 20.4166 22.59 20.4166 20.9792C20.4166 19.3683 19.1107 18.0625 17.4999 18.0625C15.8891 18.0625 14.5833 19.3683 14.5833 20.9792C14.5833 22.59 15.8891 23.8958 17.4999 23.8958Z" fill="#4ABB82"/>
</svg>
