<svg width="25" height="25" viewBox="0 0 25 25" fill="none" xmlns="http://www.w3.org/2000/svg">
<path d="M18.6292 22.0898H6.62915C5.8335 22.0898 5.07044 21.7738 4.50783 21.2112C3.94522 20.6486 3.62915 19.8855 3.62915 19.0898V5.08984C3.62915 4.29419 3.94522 3.53113 4.50783 2.96852C5.07044 2.40591 5.8335 2.08984 6.62915 2.08984H18.6292C19.4248 2.08984 20.1879 2.40591 20.7505 2.96852C21.3131 3.53113 21.6292 4.29419 21.6292 5.08984V19.0898C21.6292 19.8855 21.3131 20.6486 20.7505 21.2112C20.1879 21.7738 19.4248 22.0898 18.6292 22.0898ZM6.62915 4.08984C6.36393 4.08984 6.10958 4.1952 5.92204 4.38274C5.73451 4.57027 5.62915 4.82463 5.62915 5.08984V19.0898C5.62915 19.3551 5.73451 19.6094 5.92204 19.797C6.10958 19.9845 6.36393 20.0898 6.62915 20.0898H18.6292C18.8944 20.0898 19.1487 19.9845 19.3363 19.797C19.5238 19.6094 19.6292 19.3551 19.6292 19.0898V5.08984C19.6292 4.82463 19.5238 4.57027 19.3363 4.38274C19.1487 4.1952 18.8944 4.08984 18.6292 4.08984H6.62915Z" fill="#556987"/>
<path d="M16.6292 12.0898H8.62915C8.36393 12.0898 8.10958 11.9845 7.92204 11.797C7.73451 11.6094 7.62915 11.3551 7.62915 11.0898C7.62915 10.8246 7.73451 10.5703 7.92204 10.3827C8.10958 10.1952 8.36393 10.0898 8.62915 10.0898H16.6292C16.8944 10.0898 17.1487 10.1952 17.3363 10.3827C17.5238 10.5703 17.6292 10.8246 17.6292 11.0898C17.6292 11.3551 17.5238 11.6094 17.3363 11.797C17.1487 11.9845 16.8944 12.0898 16.6292 12.0898Z" fill="#556987"/>
<path d="M13.6292 8.08984H8.62915C8.36393 8.08984 8.10958 7.98449 7.92204 7.79695C7.73451 7.60941 7.62915 7.35506 7.62915 7.08984C7.62915 6.82463 7.73451 6.57027 7.92204 6.38274C8.10958 6.1952 8.36393 6.08984 8.62915 6.08984H13.6292C13.8944 6.08984 14.1487 6.1952 14.3363 6.38274C14.5238 6.57027 14.6292 6.82463 14.6292 7.08984C14.6292 7.35506 14.5238 7.60941 14.3363 7.79695C14.1487 7.98449 13.8944 8.08984 13.6292 8.08984Z" fill="#556987"/>
<path d="M11.6291 18.09H11.4691C11.3135 18.0639 11.1662 18.0014 11.0393 17.9076C10.9124 17.8137 10.8095 17.6912 10.7391 17.55L10.3591 16.79L9.35911 17.79C9.26587 17.8832 9.15518 17.9572 9.03336 18.0076C8.91154 18.0581 8.78097 18.084 8.64911 18.084C8.51725 18.084 8.38668 18.0581 8.26486 18.0076C8.14304 17.9572 8.03235 17.8832 7.93911 17.79C7.84587 17.6967 7.77191 17.586 7.72145 17.4642C7.67099 17.3424 7.64502 17.2118 7.64502 17.08C7.64502 16.9481 7.67099 16.8175 7.72145 16.6957C7.77191 16.5739 7.84587 16.4632 7.93911 16.37L9.93911 14.37C10.0514 14.2575 10.189 14.1734 10.3403 14.1247C10.4916 14.0761 10.6523 14.0641 10.8091 14.09C10.9648 14.116 11.1121 14.1785 11.2389 14.2723C11.3658 14.3662 11.4687 14.4887 11.5391 14.63L11.9191 15.39L12.9191 14.39C13.0314 14.2775 13.169 14.1934 13.3203 14.1447C13.4716 14.0961 13.6323 14.0841 13.7891 14.11C13.9448 14.136 14.0921 14.1985 14.2189 14.2923C14.3458 14.3862 14.4487 14.5087 14.5191 14.65L15.2491 16.09H16.6291C16.8943 16.09 17.1487 16.1953 17.3362 16.3828C17.5238 16.5704 17.6291 16.8247 17.6291 17.09C17.6291 17.3552 17.5238 17.6095 17.3362 17.7971C17.1487 17.9846 16.8943 18.09 16.6291 18.09H14.6291C14.4444 18.0894 14.2635 18.0377 14.1064 17.9406C13.9494 17.8435 13.8222 17.7049 13.7391 17.54L13.3591 16.78L12.3591 17.78C12.265 17.8787 12.1517 17.9571 12.0262 18.0104C11.9006 18.0637 11.7655 18.0908 11.6291 18.09Z" fill="#8896AB"/>
</svg>
