<svg width="45" height="45" viewBox="0 0 45 45" fill="none" xmlns="http://www.w3.org/2000/svg">
<path d="M29.1242 41.8988H15.0222C14.6575 41.8988 14.3078 41.7539 14.0499 41.496C13.7921 41.2382 13.6472 40.8884 13.6472 40.5238V34.7414C13.6472 32.5067 14.535 30.3635 16.1151 28.7833C17.6953 27.2032 19.8385 26.3154 22.0732 26.3154C24.3079 26.3154 26.4511 27.2032 28.0313 28.7833C29.6115 30.3635 30.4992 32.5067 30.4992 34.7414V40.5238C30.4992 40.8884 30.3544 41.2382 30.0965 41.496C29.8386 41.7539 29.4889 41.8988 29.1242 41.8988ZM16.3972 39.1488H27.7492V34.7414C27.7492 33.2361 27.1512 31.7923 26.0868 30.7279C25.0223 29.6634 23.5786 29.0654 22.0732 29.0654C20.5678 29.0654 19.1241 29.6634 18.0597 30.7279C16.9952 31.7923 16.3972 33.2361 16.3972 34.7414V39.1488Z" fill="#4ABB82"/>
<path d="M34.9066 41.8989H9.23991C7.90322 41.8974 6.6217 41.3658 5.67652 40.4206C4.73134 39.4754 4.1997 38.1939 4.19824 36.8572V21.7139C4.19824 21.3492 4.34311 20.9995 4.60097 20.7416C4.85883 20.4837 5.20857 20.3389 5.57324 20.3389C5.93791 20.3389 6.28765 20.4837 6.54551 20.7416C6.80338 20.9995 6.94824 21.3492 6.94824 21.7139V36.8572C6.94873 37.4648 7.19033 38.0475 7.61999 38.4771C8.04966 38.9068 8.63227 39.1484 9.23991 39.1489H34.9066C35.5142 39.1484 36.0968 38.9068 36.5265 38.4771C36.9562 38.0475 37.1978 37.4648 37.1982 36.8572V21.7139C37.1982 21.3492 37.3431 20.9995 37.601 20.7416C37.8588 20.4837 38.2086 20.3389 38.5732 20.3389C38.9379 20.3389 39.2877 20.4837 39.5455 20.7416C39.8034 20.9995 39.9482 21.3492 39.9482 21.7139V36.8572C39.9468 38.1939 39.4151 39.4754 38.47 40.4206C37.5248 41.3658 36.2433 41.8974 34.9066 41.8989Z" fill="#1D1D35"/>
<path d="M29.4067 23.5653C28.7197 23.5658 28.0399 23.4255 27.4092 23.1531C26.7786 22.8807 26.2105 22.4819 25.74 21.9813C25.2693 22.4816 24.7011 22.8803 24.0705 23.1529C23.44 23.4254 22.7603 23.566 22.0733 23.566C21.3864 23.566 20.7067 23.4254 20.0761 23.1529C19.4455 22.8803 18.8774 22.4816 18.4067 21.9813C17.9362 22.4813 17.3685 22.8798 16.7384 23.1523C16.1083 23.4248 15.4291 23.5655 14.7426 23.5659C14.0561 23.5662 13.3768 23.4261 12.7464 23.1543C12.116 22.8824 11.5479 22.4845 11.077 21.985C10.9542 22.1151 10.8203 22.2416 10.6828 22.3608C10.1227 22.8361 9.46607 23.1841 8.75834 23.381C8.05061 23.5779 7.3086 23.6189 6.58349 23.5011C5.38564 23.2759 4.30572 22.6351 3.53401 21.6917C2.76229 20.7482 2.34831 19.5627 2.36499 18.344V14.857C2.36557 14.6436 2.41578 14.4334 2.51165 14.2428L6.99599 5.27047C7.41183 4.43048 8.05486 3.72393 8.85206 3.23102C9.64927 2.73811 10.5687 2.47861 11.506 2.48197H32.6407C33.5777 2.47844 34.497 2.73767 35.2942 3.23024C36.0914 3.72281 36.7346 4.42899 37.1507 5.26864L41.6368 14.2428C41.7321 14.4335 41.7816 14.6438 41.7817 14.857V18.344C41.7987 19.5623 41.385 20.7476 40.6136 21.6907C39.8422 22.6339 38.7625 23.2744 37.565 23.4993C36.8397 23.6185 36.0972 23.5785 35.389 23.3819C34.6808 23.1853 34.0238 22.8368 33.4638 22.3608C33.3264 22.242 33.1949 22.1166 33.0697 21.985C32.599 22.4841 32.0313 22.8818 31.4014 23.1536C30.7715 23.4254 30.0927 23.5655 29.4067 23.5653ZM5.11499 15.1815V18.344C5.09459 18.909 5.27374 19.4632 5.62102 19.9094C5.96831 20.3555 6.46157 20.6652 7.01432 20.7841C7.34632 20.8401 7.68653 20.8232 8.01134 20.7346C8.33615 20.6459 8.63778 20.4877 8.89532 20.2708C9.14774 20.0551 9.35028 19.7872 9.48893 19.4855C9.62758 19.1838 9.69903 18.8556 9.69832 18.5236C9.69832 18.159 9.84319 17.8092 10.101 17.5514C10.3589 17.2935 10.7086 17.1486 11.0733 17.1486C11.438 17.1486 11.7877 17.2935 12.0456 17.5514C12.3035 17.8092 12.4483 18.159 12.4483 18.5236C12.4483 19.1314 12.6898 19.7143 13.1195 20.1441C13.5493 20.5739 14.1322 20.8153 14.74 20.8153C15.3478 20.8153 15.9307 20.5739 16.3604 20.1441C16.7902 19.7143 17.0317 19.1314 17.0317 18.5236C17.0317 18.159 17.1765 17.8092 17.4344 17.5514C17.6922 17.2935 18.042 17.1486 18.4067 17.1486C18.7713 17.1486 19.1211 17.2935 19.3789 17.5514C19.6368 17.8092 19.7817 18.159 19.7817 18.5236C19.7817 19.1314 20.0231 19.7143 20.4529 20.1441C20.8826 20.5739 21.4655 20.8153 22.0733 20.8153C22.6811 20.8153 23.264 20.5739 23.6938 20.1441C24.1235 19.7143 24.365 19.1314 24.365 18.5236C24.365 18.159 24.5099 17.8092 24.7677 17.5514C25.0256 17.2935 25.3753 17.1486 25.74 17.1486C26.1047 17.1486 26.4544 17.2935 26.7123 17.5514C26.9701 17.8092 27.115 18.159 27.115 18.5236C27.115 19.1314 27.3564 19.7143 27.7862 20.1441C28.216 20.5739 28.7989 20.8153 29.4067 20.8153C30.0144 20.8153 30.5973 20.5739 31.0271 20.1441C31.4569 19.7143 31.6983 19.1314 31.6983 18.5236C31.6983 18.159 31.8432 17.8092 32.101 17.5514C32.3589 17.2935 32.7086 17.1486 33.0733 17.1486C33.438 17.1486 33.7877 17.2935 34.0456 17.5514C34.3035 17.8092 34.4483 18.159 34.4483 18.5236C34.4475 18.8582 34.5201 19.189 34.661 19.4925C34.8019 19.796 35.0076 20.0649 35.2637 20.2803C35.5198 20.4956 35.82 20.6522 36.1432 20.7389C36.4664 20.8257 36.8046 20.8405 37.1342 20.7823C37.6864 20.6634 38.1792 20.3539 38.5262 19.9081C38.8731 19.4622 39.0521 18.9085 39.0317 18.344V15.1815L34.6903 6.49697C34.5009 6.11571 34.2085 5.79513 33.8463 5.57155C33.484 5.34797 33.0664 5.23033 32.6407 5.23197H11.506C11.0803 5.23033 10.6626 5.34797 10.3004 5.57155C9.93811 5.79513 9.64571 6.11571 9.45632 6.49697L5.11499 15.1815Z" fill="#1D1D35"/>
</svg>
