<svg width="45" height="45" viewBox="0 0 45 45" fill="none" xmlns="http://www.w3.org/2000/svg">
<path d="M14.0113 27.5047C13.6832 27.5046 13.366 27.3872 13.1169 27.1737C12.8677 26.9602 12.7031 26.6647 12.6528 26.3405L9.46284 5.62199C9.44842 5.51186 9.39386 5.41092 9.30962 5.33852C9.22538 5.26613 9.11739 5.22736 9.00634 5.22966H5.08301C4.71834 5.22966 4.3686 5.08479 4.11074 4.82693C3.85287 4.56906 3.70801 4.21933 3.70801 3.85466C3.70801 3.48998 3.85287 3.14025 4.11074 2.88238C4.3686 2.62452 4.71834 2.47966 5.08301 2.47966H9.00634C9.77812 2.47183 10.5263 2.74537 11.1111 3.24913C11.6958 3.7529 12.077 4.45239 12.1835 5.21682L15.368 25.9207C15.3956 26.0992 15.3878 26.2814 15.345 26.4569C15.3022 26.6324 15.2252 26.7978 15.1185 26.9435C15.0117 27.0893 14.8773 27.2125 14.7229 27.3063C14.5684 27.4001 14.3971 27.4625 14.2185 27.49C14.1487 27.5002 14.0782 27.5051 14.0077 27.5047H14.0113Z" fill="#1D1D35"/>
<path d="M37.6246 29.0629H15.8226C15.0551 29.0668 14.3119 28.7939 13.7293 28.2941C13.1467 27.7944 12.7639 27.1014 12.6509 26.3422L10.1026 9.80185C10.0718 9.59981 10.0864 9.39345 10.1454 9.19777C10.2044 9.0021 10.3063 8.82204 10.4436 8.67068C10.5783 8.51598 10.7472 8.3947 10.9368 8.31644C11.1264 8.23817 11.3317 8.20504 11.5363 8.21968L39.6009 9.69918C40.0733 9.72432 40.5342 9.85359 40.9508 10.0777C41.3673 10.3019 41.7291 10.6154 42.0103 10.9957C42.2915 11.3761 42.4851 11.8139 42.5773 12.2779C42.6695 12.7418 42.6579 13.2204 42.5435 13.6794L38.9593 28.0215C38.8848 28.3191 38.713 28.5832 38.4712 28.7719C38.2294 28.9606 37.9314 29.063 37.6246 29.0629ZM13.08 11.0558L15.3698 25.9242C15.3868 26.0322 15.4417 26.1307 15.5247 26.2019C15.6076 26.2731 15.7133 26.3124 15.8226 26.3129H36.5521L39.876 13.0138C39.8923 12.9482 39.8939 12.8798 39.8806 12.8134C39.8673 12.7471 39.8396 12.6845 39.7992 12.6302C39.7589 12.5758 39.7071 12.5311 39.6475 12.4992C39.5878 12.4673 39.5218 12.4489 39.4543 12.4455L13.08 11.0558Z" fill="#1D1D35"/>
<path d="M18.833 42.3545C20.3518 42.3545 21.583 41.1233 21.583 39.6045C21.583 38.0857 20.3518 36.8545 18.833 36.8545C17.3142 36.8545 16.083 38.0857 16.083 39.6045C16.083 41.1233 17.3142 42.3545 18.833 42.3545Z" fill="#1D1D35"/>
<path d="M31.6663 42.3545C33.185 42.3545 34.4163 41.1233 34.4163 39.6045C34.4163 38.0857 33.185 36.8545 31.6663 36.8545C30.1475 36.8545 28.9163 38.0857 28.9163 39.6045C28.9163 41.1233 30.1475 42.3545 31.6663 42.3545Z" fill="#1D1D35"/>
<path d="M34.8198 34.5628H14.2498C13.8851 34.5628 13.5353 34.418 13.2775 34.1601C13.0196 33.9023 12.8748 33.5525 12.8748 33.1878C12.8748 32.8232 13.0196 32.4734 13.2775 32.2156C13.5353 31.9577 13.8851 31.8128 14.2498 31.8128H34.8198C34.9216 31.8143 35.021 31.7809 35.1013 31.7183C35.1817 31.6556 35.2382 31.5674 35.2616 31.4682L39.9036 12.9423C39.9475 12.7672 40.0255 12.6024 40.1332 12.4574C40.2408 12.3124 40.3759 12.19 40.5308 12.0972C40.6857 12.0045 40.8574 11.9431 41.0361 11.9167C41.2147 11.8902 41.3968 11.8992 41.5719 11.9432C41.7471 11.9871 41.9119 12.0651 42.0569 12.1727C42.2019 12.2804 42.3242 12.4155 42.417 12.5704C42.5098 12.7253 42.5712 12.897 42.5976 13.0756C42.624 13.2543 42.615 13.4364 42.5711 13.6115L37.9328 32.1282C37.7624 32.8245 37.3627 33.4432 36.7981 33.8849C36.2334 34.3265 35.5366 34.5653 34.8198 34.5628Z" fill="#1D1D35"/>
<path d="M22.4998 21.7297C22.1351 21.7297 21.7853 21.5848 21.5275 21.3269C21.2696 21.0691 21.1248 20.7193 21.1248 20.3547V16.688C21.1248 16.3233 21.2696 15.9736 21.5275 15.7157C21.7853 15.4579 22.1351 15.313 22.4998 15.313C22.8644 15.313 23.2142 15.4579 23.472 15.7157C23.7299 15.9736 23.8748 16.3233 23.8748 16.688V20.3547C23.8748 20.7193 23.7299 21.0691 23.472 21.3269C23.2142 21.5848 22.8644 21.7297 22.4998 21.7297ZM29.8331 21.7297C29.4684 21.7297 29.1187 21.5848 28.8608 21.3269C28.603 21.0691 28.4581 20.7193 28.4581 20.3547V16.688C28.4581 16.3233 28.603 15.9736 28.8608 15.7157C29.1187 15.4579 29.4684 15.313 29.8331 15.313C30.1978 15.313 30.5475 15.4579 30.8054 15.7157C31.0632 15.9736 31.2081 16.3233 31.2081 16.688V20.3547C31.2081 20.7193 31.0632 21.0691 30.8054 21.3269C30.5475 21.5848 30.1978 21.7297 29.8331 21.7297Z" fill="#4ABB82"/>
</svg>
