<svg width="16" height="16" viewBox="0 0 16 16" fill="none" xmlns="http://www.w3.org/2000/svg">
<path d="M15.6142 7.5992L13.3426 6.95004C12.3196 6.66163 11.3877 6.11551 10.6362 5.36395C9.88459 4.61239 9.33848 3.68053 9.05007 2.65754L8.4009 0.385868C8.36826 0.30639 8.31272 0.238412 8.24135 0.190571C8.16998 0.142731 8.08599 0.117188 8.00007 0.117188C7.91415 0.117188 7.83017 0.142731 7.75879 0.190571C7.68742 0.238412 7.63189 0.30639 7.59924 0.385868L6.95007 2.65754C6.66166 3.68053 6.11555 4.61239 5.36399 5.36395C4.61242 6.11551 3.68056 6.66163 2.65757 6.95004L0.385904 7.5992C0.298679 7.62396 0.221911 7.67649 0.167247 7.74883C0.112583 7.82117 0.0830078 7.90937 0.0830078 8.00004C0.0830078 8.09071 0.112583 8.1789 0.167247 8.25124C0.221911 8.32358 0.298679 8.37611 0.385904 8.40087L2.65757 9.05004C3.68056 9.33845 4.61242 9.88456 5.36399 10.6361C6.11555 11.3877 6.66166 12.3195 6.95007 13.3425L7.59924 15.6142C7.62399 15.7014 7.67653 15.7782 7.74887 15.8329C7.82121 15.8875 7.9094 15.9171 8.00007 15.9171C8.09074 15.9171 8.17894 15.8875 8.25128 15.8329C8.32361 15.7782 8.37615 15.7014 8.4009 15.6142L9.05007 13.3425C9.33848 12.3195 9.88459 11.3877 10.6362 10.6361C11.3877 9.88456 12.3196 9.33845 13.3426 9.05004L15.6142 8.40087C15.7015 8.37611 15.7782 8.32358 15.8329 8.25124C15.8876 8.1789 15.9171 8.09071 15.9171 8.00004C15.9171 7.90937 15.8876 7.82117 15.8329 7.74883C15.7782 7.67649 15.7015 7.62396 15.6142 7.5992Z" fill="white"/>
</svg>
