<svg width="35" height="36" viewBox="0 0 35 36" fill="none" xmlns="http://www.w3.org/2000/svg">
<g clip-path="url(#clip0_1_1415)">
<path d="M31.7017 7.82483L23.2935 2.31977C21.5212 1.18495 19.459 0.585976 17.3545 0.594823C15.2501 0.603671 13.193 1.21996 11.4303 2.36965L3.24713 7.82556C2.24713 8.49017 1.42724 9.39202 0.860646 10.4506C0.294048 11.5092 -0.00162933 12.6917 6.75295e-06 13.8924V22.2323C-0.00160524 23.433 0.294083 24.6154 0.86068 25.674C1.42728 26.7325 2.24715 27.6344 3.24713 28.299L11.4303 33.7549C13.1853 34.9247 15.2453 35.5531 17.3544 35.562C19.4635 35.5708 21.5288 34.9598 23.2935 33.8048L31.7017 28.3011C32.7162 27.6394 33.5492 26.7348 34.1252 25.6693C34.7012 24.6039 35.0019 23.4114 35 22.2002V13.9245C35.0019 12.7135 34.7012 11.5212 34.1252 10.4559C33.5491 9.39071 32.7161 8.48628 31.7017 7.82483ZM32.0833 22.2002C32.0843 22.9269 31.9037 23.6423 31.558 24.2816C31.2123 24.9208 30.7124 25.4636 30.1038 25.8606L21.6956 31.3654C20.4034 32.1919 18.9001 32.6281 17.3662 32.6215C15.8323 32.6149 14.3328 32.1659 13.0477 31.3284L4.86486 25.8724C4.26487 25.4737 3.77296 24.9325 3.43301 24.2974C3.09307 23.6622 2.91568 22.9527 2.91667 22.2323V13.8924C2.91568 13.172 3.09307 12.4625 3.43301 11.8273C3.77296 11.1921 4.26487 10.651 4.86486 10.2522L13.0482 4.79631C14.3275 3.94362 15.8291 3.48553 17.3665 3.47894C18.904 3.47235 20.4095 3.91756 21.6961 4.75927L30.1042 10.2643C30.7129 10.6613 31.2127 11.204 31.5584 11.8432C31.904 12.4824 32.0844 13.1978 32.0833 13.9245V22.2002Z" fill="white"/>
<path d="M28.3407 12.4378L21.6842 16.7871C20.3924 17.6107 18.8909 18.0449 17.359 18.038C15.827 18.031 14.3295 17.5832 13.0453 16.7479L6.67237 12.4895C6.35079 12.278 5.95864 12.2022 5.58139 12.2786C5.20415 12.355 4.87242 12.5775 4.65852 12.8975C4.44462 13.2175 4.3659 13.6091 4.43953 13.9869C4.51316 14.3647 4.73317 14.6981 5.05158 14.9143L11.4261 19.1747C12.8116 20.0934 14.3918 20.6771 16.0417 20.8798V29.7291C16.0417 30.1159 16.1954 30.4868 16.4689 30.7603C16.7423 31.0338 17.1133 31.1874 17.5001 31.1874C17.8868 31.1874 18.2578 31.0338 18.5313 30.7603C18.8047 30.4868 18.9584 30.1159 18.9584 29.7291V20.8666C20.504 20.6448 21.9814 20.0841 23.285 19.2246L29.9357 14.8787C30.1009 14.7763 30.2439 14.6418 30.3564 14.4832C30.4689 14.3247 30.5485 14.1452 30.5906 13.9554C30.6327 13.7657 30.6365 13.5694 30.6017 13.3781C30.5668 13.1869 30.4941 13.0045 30.3878 12.8418C30.2814 12.679 30.1436 12.5392 29.9825 12.4305C29.8213 12.3218 29.64 12.2464 29.4493 12.2088C29.2586 12.1711 29.0623 12.172 28.8719 12.2113C28.6815 12.2506 28.5009 12.3276 28.3407 12.4378Z" fill="#4ABB82"/>
</g>
<defs>
<clipPath id="clip0_1_1415">
<rect width="35" height="35" fill="white" transform="translate(0 0.5625)"/>
</clipPath>
</defs>
</svg>
