<svg width="20" height="21" viewBox="0 0 20 21" fill="none" xmlns="http://www.w3.org/2000/svg">
<path fill-rule="evenodd" clip-rule="evenodd" d="M1.66675 10.5587C1.66675 5.9563 5.39771 2.22534 10.0001 2.22534C14.6024 2.22534 18.3334 5.9563 18.3334 10.5587C18.3334 15.161 14.6024 18.892 10.0001 18.892C5.39771 18.892 1.66675 15.161 1.66675 10.5587ZM7.30848 12.527C7.01487 12.1726 6.48954 12.1233 6.13512 12.4169C5.78071 12.7106 5.73141 13.2359 6.02501 13.5903C7.09128 14.8774 8.5265 15.5587 10.0001 15.5587C11.4737 15.5587 12.9089 14.8774 13.9752 13.5903C14.2687 13.2359 14.2195 12.7106 13.8651 12.4169C13.5107 12.1233 12.9853 12.1726 12.6917 12.527C11.917 13.4622 10.9393 13.892 10.0001 13.892C9.06083 13.892 8.08316 13.4622 7.30848 12.527Z" fill="white"/>
</svg>
